# Blender 4.2.1 LTS
# www.blender.org
mtllib ArrowMeshX.mtl
o arrow
v 1.469818 0.000000 -0.100000
v 1.469818 -0.100000 0.000000
v 1.469818 0.000000 0.100000
v 1.469818 0.100000 0.000000
v 2.029322 0.000000 0.000000
v 0.152795 0.037790 0.037790
v 1.533173 0.037789 0.037790
v 0.152795 0.037790 -0.037790
v 1.533173 0.037789 -0.037789
v 0.152795 -0.037790 0.037790
v 1.533173 -0.037790 0.037790
v 0.152795 -0.037790 -0.037790
v 1.533173 -0.037790 -0.037789
vn 0.1254 -0.7015 -0.7015
vn 0.1254 -0.7015 0.7015
vn -1.0000 -0.0000 -0.0000
vn 0.1254 0.7015 0.7015
vn 0.1254 0.7015 -0.7015
vn -0.0000 1.0000 -0.0000
vn -0.0000 -0.0000 -1.0000
vn -0.0000 -1.0000 -0.0000
vn -0.0000 -0.0000 1.0000
vn 1.0000 -0.0000 -0.0000
vt 0.250000 0.490000
vt 0.250000 0.250000
vt 0.490000 0.250000
vt 0.250000 0.010000
vt 0.750000 0.490000
vt 0.990000 0.250000
vt 0.750000 0.010000
vt 0.510000 0.250000
vt 0.010000 0.250000
vt 0.375000 0.000000
vt 0.625000 0.000000
vt 0.625000 0.250000
vt 0.375000 0.250000
vt 0.625000 0.500000
vt 0.375000 0.500000
vt 0.625000 0.750000
vt 0.375000 0.750000
vt 0.625000 1.000000
vt 0.375000 1.000000
vt 0.125000 0.500000
vt 0.125000 0.750000
vt 0.875000 0.500000
vt 0.875000 0.750000
s 1
usemtl Material.001
f 1/1/1 5/2/1 2/3/1
f 2/3/2 5/2/2 3/4/2
f 1/5/3 2/6/3 3/7/3 4/8/3
f 3/4/4 5/2/4 4/9/4
f 4/9/5 5/2/5 1/1/5
f 6/10/6 7/11/6 9/12/6 8/13/6
f 8/13/7 9/12/7 13/14/7 12/15/7
f 12/15/8 13/14/8 11/16/8 10/17/8
f 10/17/9 11/16/9 7/18/9 6/19/9
f 8/20/3 12/15/3 10/17/3 6/21/3
f 13/14/10 9/22/10 7/23/10 11/16/10
